<?xml version="1.0" encoding="UTF-8" standalone="no"?>
<!-- Created with Inkscape (http://www.inkscape.org/) -->

<svg
   xmlns:dc="http://purl.org/dc/elements/1.1/"
   xmlns:cc="http://creativecommons.org/ns#"
   xmlns:rdf="http://www.w3.org/1999/02/22-rdf-syntax-ns#"
   xmlns:svg="http://www.w3.org/2000/svg"
   xmlns="http://www.w3.org/2000/svg"
   xmlns:sodipodi="http://sodipodi.sourceforge.net/DTD/sodipodi-0.dtd"
   xmlns:inkscape="http://www.inkscape.org/namespaces/inkscape"
   width="1024"
   height="165"
   id="svg2"
   version="1.1"
   inkscape:version="0.48.4 r9939"
   sodipodi:docname="Dial with it.svg">
   <defs
      id="defs4" />
   <sodipodi:namedview
      id="base"
      pagecolor="#ffffff"
      bordercolor="#666666"
      borderopacity="1.0"
      inkscape:pageopacity="0.0"
      inkscape:pageshadow="2"
      inkscape:zoom="0.24748738"
      inkscape:cx="-72.297998"
      inkscape:cy="433.00068"
      inkscape:document-units="px"
      inkscape:current-layer="layer1"
      showgrid="false"
      inkscape:snap-global="true"
      inkscape:object-paths="true"
      inkscape:object-nodes="true"
      fit-margin-top="0"
      fit-margin-left="0"
      fit-margin-right="0"
      fit-margin-bottom="0"
      inkscape:window-width="1920"
      inkscape:window-height="1018"
      inkscape:window-x="-8"
      inkscape:window-y="-8"
      inkscape:window-maximized="1">
      <inkscape:grid
         type="xygrid"
         id="grid3010"
         empspacing="5"
         visible="true"
         enabled="true"
         snapvisiblegridlinesonly="true"
         originx="-45.883115px"
         originy="-324.23088px" />
   </sodipodi:namedview>
   <metadata
      id="metadata7">
      <rdf:RDF>
         <cc:Work
            rdf:about="">
            <dc:format>image/svg+xml</dc:format>
            <dc:type
               rdf:resource="http://purl.org/dc/dcmitype/StillImage" />
            <dc:title />
         </cc:Work>
      </rdf:RDF>
   </metadata>
   <g
      inkscape:label="Layer 1"
      inkscape:groupmode="layer"
      id="layer1"
      transform="translate(-45.883115,-227.59936)">
      <g
         id="g2999"
         transform="matrix(1.6516129,0,0,1.6516129,-29.898033,-255.92797)">
         <path
            id="path2994"
            transform="translate(45.883117,292.76069)"
            d="m 40,0 0,20 20,0 20,0 20,0 20,0 20,0 20,0 0,20 20,0 0,20 20,0 0,20 20,0 0,20 20,0 20,0 20,0 20,0 20,0 20,0 0,-20 20,0 0,-20 20,0 0,-20 20,0 20,0 0,20 20,0 0,20 20,0 20,0 20,0 20,0 20,0 20,0 20,0 0,-20 20,0 0,-20 20,0 0,-20 L 620,0 600,0 580,0 560,0 540,0 520,0 500,0 480,0 460,0 440,0 420,0 400,0 380,0 360,0 340,0 320,0 300,0 280,0 260,0 240,0 220,0 200,0 180,0 160,0 140,0 120,0 100,0 80,0 60,0 40,0 z m 0,20 -20,0 -20,0 0,20 20,0 20,0 0,-20 z"
            style="fill:#000000;fill-opacity:1;stroke:none"
            inkscape:connector-curvature="0" />
         <path
            transform="translate(45.883117,292.76069)"
            id="path2990"
            d="m 200,20 0,20 20,0 0,-20 -20,0 z m 20,20 0,20 20,0 0,-20 -20,0 z m 20,0 20,0 0,-20 -20,0 0,20 z m 20,0 0,20 20,0 0,-20 -20,0 z m 20,20 0,20 20,0 0,-20 -20,0 z m -20,0 -20,0 0,20 20,0 0,-20 z"
            style="fill:#ffffff;fill-opacity:1;stroke:none"
            inkscape:connector-curvature="0" />
         <path
            id="rect3012"
            d="m 485.88312,312.76069 20,0 0,20 20,0 0,-20 20,0 0,20 20,0 0,20 -20,0 0,-20 -20,0 0,20 -20,0 0,-20 -20,0 0,-20 z"
            style="fill:#ffffff;fill-opacity:1;stroke:none"
            inkscape:connector-curvature="0" />
      </g>
   </g>
</svg>
